<svg width="1151" height="256" viewBox="0 0 1151 256" fill="none" xmlns="http://www.w3.org/2000/svg">
<g clip-path="url(#clip0_13_25)">
<path d="M0 96.0059V159.994H63.9941V224H128.006C128.006 188.647 156.661 159.994 192 159.994V96.0059H128.006V32H63.9941C63.9941 67.3531 35.3387 96.0059 0 96.0059Z" fill="black" style="fill:black;fill-opacity:1;"/>
</g>
<path d="M338.546 93.9627V188H319.09V176.907C316.018 180.775 311.979 183.847 306.973 186.123C302.08 188.284 296.846 189.365 291.271 189.365C283.876 189.365 277.22 187.829 271.303 184.757C265.501 181.685 260.893 177.134 257.479 171.104C254.18 165.074 252.53 157.792 252.53 149.259V93.9627H271.815V146.357C271.815 154.777 273.92 161.262 278.13 165.813C282.34 170.251 288.086 172.469 295.367 172.469C302.649 172.469 308.395 170.251 312.605 165.813C316.928 161.262 319.09 154.777 319.09 146.357V93.9627H338.546ZM398.35 189.536C390.954 189.536 384.298 188.228 378.382 185.611C372.579 182.88 367.971 179.239 364.558 174.688C361.145 170.023 359.324 164.846 359.097 159.157H379.235C379.577 163.14 381.454 166.496 384.867 169.227C388.394 171.844 392.775 173.152 398.009 173.152C403.47 173.152 407.68 172.128 410.638 170.08C413.71 167.918 415.246 165.188 415.246 161.888C415.246 158.361 413.539 155.744 410.126 154.037C406.826 152.331 401.536 150.453 394.254 148.405C387.2 146.471 381.454 144.594 377.017 142.773C372.579 140.953 368.711 138.165 365.411 134.411C362.226 130.656 360.633 125.707 360.633 119.563C360.633 114.556 362.112 110.005 365.07 105.909C368.028 101.7 372.238 98.4 377.699 96.0106C383.274 93.6213 389.646 92.4267 396.814 92.4267C407.509 92.4267 416.099 95.1573 422.585 100.619C429.184 105.966 432.711 113.305 433.166 122.635H413.71C413.369 118.425 411.662 115.068 408.59 112.565C405.518 110.062 401.365 108.811 396.131 108.811C391.011 108.811 387.086 109.778 384.355 111.712C381.625 113.646 380.259 116.206 380.259 119.392C380.259 121.895 381.17 124 382.99 125.707C384.81 127.413 387.029 128.779 389.646 129.803C392.263 130.713 396.131 131.908 401.251 133.387C408.078 135.207 413.653 137.084 417.977 139.019C422.414 140.839 426.226 143.57 429.411 147.211C432.597 150.852 434.247 155.687 434.361 161.717C434.361 167.065 432.882 171.844 429.923 176.053C426.965 180.263 422.755 183.563 417.294 185.952C411.946 188.341 405.632 189.536 398.35 189.536ZM541.57 138.677C541.57 142.204 541.342 145.39 540.887 148.235H469.037C469.606 155.744 472.393 161.774 477.399 166.325C482.406 170.876 488.55 173.152 495.831 173.152C506.299 173.152 513.694 168.772 518.018 160.011H539.01C536.166 168.658 530.989 175.769 523.479 181.344C516.084 186.805 506.868 189.536 495.831 189.536C486.843 189.536 478.765 187.545 471.597 183.563C464.542 179.467 458.967 173.778 454.871 166.496C450.889 159.1 448.898 150.567 448.898 140.896C448.898 131.225 450.832 122.748 454.701 115.467C458.683 108.071 464.201 102.382 471.255 98.4C478.423 94.4178 486.615 92.4267 495.831 92.4267C504.706 92.4267 512.614 94.3609 519.554 98.2293C526.494 102.098 531.899 107.559 535.767 114.613C539.636 121.554 541.57 129.575 541.57 138.677ZM521.261 132.533C521.147 125.365 518.587 119.62 513.581 115.296C508.574 110.972 502.374 108.811 494.978 108.811C488.265 108.811 482.519 110.972 477.741 115.296C472.962 119.506 470.118 125.252 469.207 132.533H521.261ZM554.231 140.555C554.231 131.111 556.166 122.748 560.034 115.467C564.016 108.185 569.364 102.553 576.077 98.5706C582.903 94.4747 590.413 92.4267 598.605 92.4267C606 92.4267 612.429 93.9058 617.89 96.864C623.465 99.7084 627.902 103.292 631.202 107.616V93.9627H650.829V188H631.202V174.005C627.902 178.443 623.408 182.14 617.719 185.099C612.03 188.057 605.545 189.536 598.263 189.536C590.185 189.536 582.79 187.488 576.077 183.392C569.364 179.182 564.016 173.38 560.034 165.984C556.166 158.475 554.231 149.998 554.231 140.555ZM631.202 140.896C631.202 134.411 629.837 128.779 627.106 124C624.489 119.221 621.019 115.58 616.695 113.077C612.372 110.574 607.707 109.323 602.701 109.323C597.694 109.323 593.03 110.574 588.706 113.077C584.382 115.467 580.855 119.051 578.125 123.829C575.508 128.494 574.199 134.069 574.199 140.555C574.199 147.04 575.508 152.729 578.125 157.621C580.855 162.514 584.382 166.268 588.706 168.885C593.143 171.388 597.808 172.64 602.701 172.64C607.707 172.64 612.372 171.388 616.695 168.885C621.019 166.382 624.489 162.741 627.106 157.963C629.837 153.07 631.202 147.381 631.202 140.896ZM714.271 92.4267C721.553 92.4267 727.982 93.9058 733.557 96.864C739.246 99.7084 743.683 103.292 746.869 107.616V93.9627H766.495V189.536C766.495 198.183 764.675 205.863 761.034 212.576C757.393 219.403 752.102 224.75 745.162 228.619C738.335 232.487 730.143 234.421 720.586 234.421C707.843 234.421 697.262 231.406 688.842 225.376C680.422 219.46 675.644 211.381 674.506 201.141H693.791C695.27 206.034 698.399 209.959 703.178 212.917C708.07 215.989 713.873 217.525 720.586 217.525C728.437 217.525 734.751 215.136 739.53 210.357C744.422 205.579 746.869 198.638 746.869 189.536V173.835C743.569 178.272 739.075 182.027 733.386 185.099C727.811 188.057 721.439 189.536 714.271 189.536C706.079 189.536 698.57 187.488 691.743 183.392C685.03 179.182 679.683 173.38 675.701 165.984C671.832 158.475 669.898 149.998 669.898 140.555C669.898 131.111 671.832 122.748 675.701 115.467C679.683 108.185 685.03 102.553 691.743 98.5706C698.57 94.4747 706.079 92.4267 714.271 92.4267ZM746.869 140.896C746.869 134.411 745.503 128.779 742.773 124C740.156 119.221 736.686 115.58 732.362 113.077C728.038 110.574 723.374 109.323 718.367 109.323C713.361 109.323 708.696 110.574 704.373 113.077C700.049 115.467 696.522 119.051 693.791 123.829C691.174 128.494 689.866 134.069 689.866 140.555C689.866 147.04 691.174 152.729 693.791 157.621C696.522 162.514 700.049 166.268 704.373 168.885C708.81 171.388 713.475 172.64 718.367 172.64C723.374 172.64 728.038 171.388 732.362 168.885C736.686 166.382 740.156 162.741 742.773 157.963C745.503 153.07 746.869 147.381 746.869 140.896ZM878.237 138.677C878.237 142.204 878.009 145.39 877.554 148.235H805.703C806.272 155.744 809.06 161.774 814.066 166.325C819.072 170.876 825.216 173.152 832.498 173.152C842.966 173.152 850.361 168.772 854.685 160.011H875.677C872.832 168.658 867.655 175.769 860.146 181.344C852.75 186.805 843.534 189.536 832.498 189.536C823.51 189.536 815.431 187.545 808.263 183.563C801.209 179.467 795.634 173.778 791.538 166.496C787.556 159.1 785.565 150.567 785.565 140.896C785.565 131.225 787.499 122.748 791.367 115.467C795.35 108.071 800.868 102.382 807.922 98.4C815.09 94.4178 823.282 92.4267 832.498 92.4267C841.373 92.4267 849.28 94.3609 856.221 98.2293C863.161 102.098 868.566 107.559 872.434 114.613C876.302 121.554 878.237 129.575 878.237 138.677ZM857.927 132.533C857.814 125.365 855.254 119.62 850.247 115.296C845.241 110.972 839.04 108.811 831.645 108.811C824.932 108.811 819.186 110.972 814.407 115.296C809.629 119.506 806.784 125.252 805.874 132.533H857.927ZM944.829 92.4267C952.224 92.4267 958.823 93.9627 964.626 97.0346C970.542 100.107 975.15 104.658 978.45 110.688C981.75 116.718 983.399 124 983.399 132.533V188H964.114V135.435C964.114 127.015 962.009 120.587 957.799 116.149C953.59 111.598 947.844 109.323 940.562 109.323C933.28 109.323 927.478 111.598 923.154 116.149C918.944 120.587 916.839 127.015 916.839 135.435V188H897.383V93.9627H916.839V104.715C920.025 100.846 924.064 97.8311 928.957 95.6693C933.963 93.5075 939.254 92.4267 944.829 92.4267ZM1030.92 109.835V161.888C1030.92 165.415 1031.71 167.975 1033.3 169.568C1035.01 171.047 1037.86 171.787 1041.84 171.787H1053.78V188H1038.42C1029.66 188 1022.95 185.952 1018.29 181.856C1013.62 177.76 1011.29 171.104 1011.29 161.888V109.835H1000.2V93.9627H1011.29V70.5813H1030.92V93.9627H1053.78V109.835H1030.92ZM1105.85 189.536C1098.45 189.536 1091.8 188.228 1085.88 185.611C1080.08 182.88 1075.47 179.239 1072.06 174.688C1068.64 170.023 1066.82 164.846 1066.6 159.157H1086.74C1087.08 163.14 1088.95 166.496 1092.37 169.227C1095.89 171.844 1100.27 173.152 1105.51 173.152C1110.97 173.152 1115.18 172.128 1118.14 170.08C1121.21 167.918 1122.75 165.188 1122.75 161.888C1122.75 158.361 1121.04 155.744 1117.63 154.037C1114.33 152.331 1109.04 150.453 1101.75 148.405C1094.7 146.471 1088.95 144.594 1084.52 142.773C1080.08 140.953 1076.21 138.165 1072.91 134.411C1069.73 130.656 1068.13 125.707 1068.13 119.563C1068.13 114.556 1069.61 110.005 1072.57 105.909C1075.53 101.7 1079.74 98.4 1085.2 96.0106C1090.77 93.6213 1097.15 92.4267 1104.31 92.4267C1115.01 92.4267 1123.6 95.1573 1130.08 100.619C1136.68 105.966 1140.21 113.305 1140.67 122.635H1121.21C1120.87 118.425 1119.16 115.068 1116.09 112.565C1113.02 110.062 1108.87 108.811 1103.63 108.811C1098.51 108.811 1094.59 109.778 1091.86 111.712C1089.12 113.646 1087.76 116.206 1087.76 119.392C1087.76 121.895 1088.67 124 1090.49 125.707C1092.31 127.413 1094.53 128.779 1097.15 129.803C1099.76 130.713 1103.63 131.908 1108.75 133.387C1115.58 135.207 1121.15 137.084 1125.48 139.019C1129.91 140.839 1133.73 143.57 1136.91 147.211C1140.1 150.852 1141.75 155.687 1141.86 161.717C1141.86 167.065 1140.38 171.844 1137.42 176.053C1134.47 180.263 1130.26 183.563 1124.79 185.952C1119.45 188.341 1113.13 189.536 1105.85 189.536Z" fill="black" style="fill:black;fill-opacity:1;"/>
<defs>
<clipPath id="clip0_13_25">
<rect width="192" height="192" fill="white" style="fill:white;fill-opacity:1;" transform="matrix(-1 0 0 1 192 32)"/>
</clipPath>
</defs>
</svg>
